<svg xmlns="http://www.w3.org/2000/svg" xmlns:xlink="http://www.w3.org/1999/xlink" viewBox="0 0 280.22 290.85"><defs><style>.cls-1{fill:url(#linear-gradient);}</style><linearGradient id="linear-gradient" y1="145.42" x2="280.22" y2="145.42" gradientUnits="userSpaceOnUse"><stop offset="0" stop-color="#14b8a6"/><stop offset="1" stop-color="#a855f7"/></linearGradient></defs><g id="Layer_2" data-name="Layer 2"><g id="Layer_1-2" data-name="Layer 1"><path class="cls-1" d="M242.38,53.91s-4.08,42.55-5.78,42.55S270,108,270,108s12.59-72.51,9.87-75.58S136.17-39,0,32.46A388.83,388.83,0,0,0,27.57,167.27s96.34-44.93,191.32-10.55c0,0-26.56,66.72-78.81,93.28,0,0-50.55-30-67.57-70.13l-33.7,11.91s32.33,64,101.27,99.07c0,0,97.2-50,123.41-156.26A319.9,319.9,0,0,0,197.28,115c-63.18-11.42-116.51-1.25-148.94,8-2-8.94-3.92-18.42-5.53-28.43C40.45,80,39,66.15,38.09,53.35A274.91,274.91,0,0,1,101,36.81C163.07,28.2,214,43,242.38,53.91Z"/></g></g></svg>